<?xml version="1.0" encoding="utf-8"?>
<!-- Generator: Adobe Illustrator 18.1.0, SVG Export Plug-In . SVG Version: 6.00 Build 0)  -->
<!DOCTYPE svg PUBLIC "-//W3C//DTD SVG 1.1//EN" "http://www.w3.org/Graphics/SVG/1.1/DTD/svg11.dtd">
<svg version="1.1" id="Layer_1" xmlns="http://www.w3.org/2000/svg" xmlns:xlink="http://www.w3.org/1999/xlink" x="0px" y="0px"
	 viewBox="0 0 56 56" enable-background="new 0 0 56 56" xml:space="preserve">
<g>
	<g>
		<g>
			<path fill="#FFFFFF" d="M47.3,8.5c-4.9-4.9-11.8-8-19.3-8c-7.5,0-14.4,3.1-19.3,8c-4.9,4.9-8,11.8-8,19.3c0,7.5,3.1,14.4,8,19.3
				c4.9,4.9,11.8,8,19.3,8c7.5,0,14.4-3.1,19.3-8c4.9-4.9,8-11.8,8-19.3C55.3,20.2,52.2,13.4,47.3,8.5z M44.2,43.9
				c-4.2,4.1-9.9,6.7-16.2,6.7c-6.3,0-12-2.6-16.2-6.7c-4.1-4.2-6.7-9.9-6.7-16.2c0-6.3,2.6-12,6.7-16.2C16,7.4,21.7,4.9,28,4.9
				c6.3,0,12,2.6,16.2,6.7c4.1,4.2,6.7,9.9,6.7,16.2S48.3,39.8,44.2,43.9z"/>
			<path fill="#FFFFFF" d="M30.2,39.9H18.9V16.1h11c4.9,0,7.8,2.4,7.8,6.1v0.1c0,2.7-1.4,4.2-3.1,5.1c2.8,1.1,4.5,2.6,4.5,5.8v0.1
				C39.1,37.7,35.6,39.9,30.2,39.9z M32.6,23.1c0-1.6-1.2-2.4-3.4-2.4H24v5h4.8C31.1,25.7,32.6,25,32.6,23.1L32.6,23.1z M33.9,32.7
				c0-1.6-1.2-2.6-3.9-2.6h-6v5.2h6.2C32.5,35.3,33.9,34.5,33.9,32.7L33.9,32.7z"/>
		</g>
	</g>
</g>
</svg>
