<?xml version="1.0" encoding="utf-8"?>
<!-- Generator: Adobe Illustrator 20.1.0, SVG Export Plug-In . SVG Version: 6.00 Build 0)  -->
<svg version="1.1"
	 id="citruslogo" xmlns:cc="http://creativecommons.org/ns#" xmlns:dc="http://purl.org/dc/elements/1.1/" xmlns:rdf="http://www.w3.org/1999/02/22-rdf-syntax-ns#" xmlns:svg="http://www.w3.org/2000/svg"
	 xmlns="http://www.w3.org/2000/svg" xmlns:xlink="http://www.w3.org/1999/xlink" x="0px" y="0px" viewBox="0 0 594.6 167.2"
	 style="enable-background:new 0 0 594.6 167.2;" xml:space="preserve">
<style type="text/css">
	.st0{fill:#FFFFFF;}
</style>
<g>
	<path class="st0" d="M66.4,61.8h12.7c14.3,0,26.1-11.7,26.1-26.1H66.4C30.4,35.7,0,65.5,0,101.6c0,36.2,30.1,65.6,66.4,65.6h38.8
		c0-14.1-12-26.1-26.1-26.1H66.4c-21.5,0-38.8-17.6-38.8-39.5C27.6,79.9,45.1,61.8,66.4,61.8"/>
	<path class="st0" d="M473.3,35.7c-15,0-27.6,12.7-27.6,27.6v38c0,21.2-17.4,39.8-38.8,39.8c-21.7,0-39-18.4-39-39.8v-38
		c0-14.8-12.8-27.6-27.6-27.6v65.6c0,36.2,30.1,65.9,66.6,65.9c36.3,0,66.4-29.9,66.4-65.9L473.3,35.7L473.3,35.7z"/>
	<path class="st0" d="M116.8,35.7v103.9c0,15.1,12.5,27.6,27.6,27.6V63.3C144.4,48.5,131.6,35.7,116.8,35.7"/>
	<path class="st0" d="M217.1,140.8c-17.2,0-30.8-14.1-30.8-31.3l0.1-3.8l0-0.8V61.5H213c14.3,0,26.3-11.5,26.3-26h-52.9v-7.9
		c0-14.8-12.8-27.6-27.6-27.6v104.9h0v10.4c0,28.8,23.9,51.9,52.6,51.9h32.2C243.5,152.7,231.7,140.8,217.1,140.8"/>
	<path class="st0" d="M250.9,87.5v10.4h0v6.8h-0.1v62.6c15,0,27.6-12.7,27.6-27.6v-29.2h0.1V97.1l-0.1-3.8
		c0-17.2,13.6-31.3,30.8-31.3c14.6,0,26.4-11.9,26.4-26.4h-32.2C274.7,35.6,250.9,58.6,250.9,87.5"/>
	<path class="st0" d="M594.6,35.8l-33.2,0.4c-28.1,1.5-49.7,23.3-48.2,51.7l1.2,22.8c0.9,17.1-13,29.2-30.1,30.1
		c-14.4,0.8-23.9,12.1-23.2,26.4h35.1c28.4-1.5,47.2-23.6,45.7-52.2l-1.2-22.8c-0.9-17.1,14-29.2,30.6-30
		C586,61.4,595.3,50.4,594.6,35.8"/>
</g>
</svg>
