<?xml version="1.0" encoding="utf-8"?>
<!-- Generator: Adobe Illustrator 19.2.1, SVG Export Plug-In . SVG Version: 6.00 Build 0)  -->
<svg version="1.1" id="Layer_1" xmlns="http://www.w3.org/2000/svg" xmlns:xlink="http://www.w3.org/1999/xlink" x="0px" y="0px"
	 width="198px" height="60.4px" viewBox="0 0 198 60.4" style="enable-background:new 0 0 198 60.4;" xml:space="preserve">
<style type="text/css">
	.st0{fill:#FFFFFF;}
</style>
<g>
	<g>
		<path class="st0" d="M59.8,17.8C53.7,6.5,33.3-3.5,18.6,1.2c-6,1.9-1.6,3.9,0.2,4.7c-1.5-5.8,8.4-4.6,6.7,1.7
			c8.4,4.2,9.3,8.6,9.8,10.1c4.1,2.8,7.6,5.5,7.7,6.3c0.1,1.7-6.9,4.6-7.9,5c-1,0.4-5.1,0.3-7.9-1.2C21.8,25.5,0.6,17.3,0,27.2
			c-0.2,4.2,13.4,16.7,10.4,27.7c-3,1.4-3.1,4.2-2.9,4.5c1.5,1.1,11.1,1,12.8,0c1.6-3.6,1.6-7.9-0.8-14.9c1.9,3.6,4.4,4.4,4.2,11.1
			c-2.9,1.8-2.3,3.5-2.2,3.7c1.8,1.1,13,0.6,13.9,0c0.5-0.2,2.5-2.4,2.4-8.5c1.7-4.8,4.2-6.2,6.2-9.3c-2.7,8.1-2,5.9-2.8,12.9
			c-2.9,1.2-4.1,4.4-3.6,4.9c1,1,13.7,1.8,16.9,0C68.1,42.1,64.2,25.8,59.8,17.8z"/>
	</g>
	<ellipse transform="matrix(0.9034 -0.4287 0.4287 0.9034 -3.6676 14.0783)" class="st0" cx="29.4" cy="15.2" rx="1" ry="1.2"/>
</g>
<g>
	<g>
		<path class="st0" d="M86,36.3l2.2,0.2v3.4h-10v-3.3l1.4-0.1c0.7,0,1.1-0.3,1.1-1.4V12.4c0-1-0.2-1.3-1-1.3L78.1,11V7.6H86v19.3
			c3.4-0.3,6.8-3.2,6.8-5.5c0-0.6-0.4-0.8-1-0.9l-1.2-0.1V17h9.2v3.4l-2.1,0.2c-0.3,2.5-1.7,4.9-4.1,6.7l4.5,8.9l2.4,0.2v3.4h-6.7
			L89,29.7c-1,0.4-1.9,0.6-3,0.8V36.3z"/>
		<path class="st0" d="M122.4,35.2c0,0.9,0.2,1.2,1,1.3l1.3,0.1v3.3H118l-0.1-2.4l-0.1,0c-1.1,1.6-3.1,3-6.2,3
			c-6.6,0-9.1-4.7-9.1-11c0-8,3.9-13,12-13c1.5,0,4.8,0.3,8,1.5V35.2z M117.1,21.1c-0.7-0.3-2-0.6-3.4-0.6c-4.5,0-5.8,4.1-5.8,8.7
			c0,3.6,0.9,7.1,4.7,7.1c2.9,0,4.5-2,4.5-4.1V21.1z"/>
		<path class="st0" d="M135.3,25.6v10.7l3.6,0.2v3.4h-11.4v-3.3l1.4-0.1c1-0.1,1.1-0.5,1.1-1.5V21.8c0-0.9-0.3-1.2-1-1.3l-1.5-0.1
			V17h7.4v3.4h0c0.8-1.9,2.8-4,6.4-4c1.3,0,2.9,0.2,4.2,0.9v7.6l-4.5,0.3v-2.9c0-0.8,0-1-0.4-1.2c-0.3-0.2-0.7-0.2-1.3-0.2
			C136.9,20.9,135.3,23,135.3,25.6z"/>
		<path class="st0" d="M150.5,12.4c0-1-0.3-1.3-1.1-1.3l-1.4-0.1V7.6h7.8v12.6c1.6-2.9,4.3-3.8,6.6-3.8c5.3,0,7.1,3.1,7.1,7.7v12.1
			l2.3,0.1v3.4h-10v-3.2l1.4-0.1c0.8-0.1,1-0.5,1-1.5v-9.6c0-2.7-0.6-4.5-3.6-4.5c-2.8,0-4.7,2.2-4.7,4.9v10.5l2.2,0.1v3.4h-10v-3.3
			l1.3-0.1c0.9-0.1,1.2-0.4,1.2-1.5V12.4z"/>
		<path class="st0" d="M195.7,35c0,1.1,0.2,1.4,1,1.4l1.3,0.1v3.3h-7.2v-2.9h-0.1c-1.4,2.4-3.9,3.6-6.8,3.6c-4.8,0-7.1-2.5-7.1-7.7
			V21.9c0-1-0.3-1.2-1.1-1.3l-1.3-0.1V17h7.8v14.5c0,3,0.5,4.6,3.5,4.6c2.7,0,4.8-2.1,4.8-5v-9.1c0-1-0.3-1.3-1.1-1.4l-1.2-0.1V17
			h7.7V35z"/>
	</g>
	<g>
		<path class="st0" d="M86.1,48.3v7.1h-0.8v-3.3h-3.7v3.3h-0.8v-7.1h0.8v3h3.7v-3H86.1z"/>
		<path class="st0" d="M98.5,48.3h4V49h-3.1v2.4h2.7v0.7h-2.7v2.5h3.2v0.7h-4.1V48.3z"/>
		<path class="st0" d="M114.5,48.3h0.8v6.4h3.2v0.7h-4V48.3z"/>
		<path class="st0" d="M130.4,54.2c0.3,0.2,1.1,0.6,1.9,0.6c0.7,0,1.5-0.2,1.5-1.3c0-0.9-0.7-1.1-1.6-1.4c-1-0.3-2-0.7-2-2
			c0-1.2,0.9-2,2.3-2c1,0,1.8,0.4,2.3,1l-0.5,0.6c-0.6-0.5-1.2-0.8-1.9-0.8c-0.6,0-1.4,0.3-1.4,1.2c0,0.8,0.7,1.1,1.6,1.4
			c1,0.3,2,0.7,2,2c0,1.3-0.9,2.1-2.4,2.1c-1,0-2-0.4-2.3-0.7L130.4,54.2z"/>
		<path class="st0" d="M146.9,55.4v-7.1h0.8v7.1H146.9z"/>
		<path class="st0" d="M165.6,48.3v7.1h-0.9l-3.6-6h0v6h-0.8v-7.1h1l3.6,5.9c0,0,0,0,0,0v-5.9H165.6z"/>
		<path class="st0" d="M180.8,51.1l2.3,4.3h-1l-1.9-3.6l-1.4,1.8v1.8H178v-7.1h0.8v4.2l3.1-4.2h0.9L180.8,51.1z"/>
		<path class="st0" d="M194.8,55.4v-7.1h0.8v7.1H194.8z"/>
	</g>
</g>
</svg>
