<svg id="Layer_1" data-name="Layer 1" xmlns="http://www.w3.org/2000/svg" xmlns:xlink="http://www.w3.org/1999/xlink" viewBox="0 0 518.6 187.9"><defs><linearGradient id="New_Gradient_Swatch_1" x1="438.03" y1="87.87" x2="504.75" y2="154.58" gradientUnits="userSpaceOnUse"><stop offset="0" stop-color="#f7a941"/><stop offset="0.07" stop-color="#f6a33d"/><stop offset="0.39" stop-color="#f38f30"/><stop offset="0.7" stop-color="#f18229"/><stop offset="1" stop-color="#f07e26"/></linearGradient></defs><title>wunder-logo_white</title><path d="M427,25.8q-0.2,1.8-.2,3.6a39.5,39.5,0,0,0,11.4,28.1,39,39,0,0,0,23.2,11.1A49.5,49.5,0,0,1,451.4,39a48.4,48.4,0,0,1,.6-7.3,40,40,0,0,0-21.3-6Z" fill="#95c11f"/><path d="M458.5,31.3a44,44,0,0,0-.7,7.6,45.7,45.7,0,0,0,10.6,28.9c-0.1-1-.1-2-0.1-3a43.5,43.5,0,0,1,12.6-31A42.3,42.3,0,0,1,491.8,26,46.1,46.1,0,0,0,480.9,0,45.2,45.2,0,0,0,458.5,31.3Z" fill="#95c11f"/><path d="M518.3,25.5l-3.6-.2a39,39,0,0,0-39.6,39.6c0,1.2,0,2.4.2,3.7l3.7,0.2a39,39,0,0,0,39.5-39.6C518.4,27.9,518.4,26.7,518.3,25.5Z" fill="#95c11f"/><path d="M502.9,86.2a47.1,47.1,0,0,0-69.1,63.4,47.8,47.8,0,0,0,3.9,4.6l33.7,33.7,33.7-33.7A47.1,47.1,0,0,0,502.9,86.2Z" fill="url(#New_Gradient_Swatch_1)"/><path d="M42.6,128.6L31.9,165.5a7.5,7.5,0,0,1-14.4.3l-17.2-54a5,5,0,0,1-.3-1.9,6.7,6.7,0,0,1,13-2.1l11.5,39.2,10.8-38.3a7.6,7.6,0,0,1,7.2-5.5,8.1,8.1,0,0,1,7.1,5.3l10.8,38.6L72,107.7a6.7,6.7,0,0,1,13,2.1,5,5,0,0,1-.3,1.9L67.6,165.7a7.4,7.4,0,0,1-14.3,0Z" fill="#fff"/><path d="M132.2,109.8a6.6,6.6,0,0,1,6.6-6.7,6.7,6.7,0,0,1,6.7,6.7v50.1a8.3,8.3,0,0,1-5.7,7.9,61.7,61.7,0,0,1-20.3,3.4c-7.5,0-14.2-2.2-19-7s-6.8-11.4-6.8-19V109.8a6.6,6.6,0,1,1,13.3,0v36.4c0,8,4.6,12.5,12.5,12.5a50.7,50.7,0,0,0,12.6-1.5V109.8Z" fill="#fff"/><path d="M197.2,127.9c0-7.9-4.6-12.5-12.6-12.5A50.4,50.4,0,0,0,172,117v47.3a6.6,6.6,0,1,1-13.3,0v-50a8.2,8.2,0,0,1,5.7-7.9,61.5,61.5,0,0,1,20.1-3.4c7.6,0,14.1,2.5,18.7,7.2s7.2,11.1,7.2,18.6v35.5a6.7,6.7,0,0,1-6.7,6.7,6.6,6.6,0,0,1-6.6-6.7V127.9Z" fill="#fff"/><path d="M221.3,128.9c0-7.5,2.3-14.1,7-18.7s11.4-7.1,18.8-7.1a29.2,29.2,0,0,1,12.6,3.4V84.8a6.6,6.6,0,0,1,6.6-6.7,6.7,6.7,0,0,1,6.7,6.7v75.1a8.3,8.3,0,0,1-5.7,7.9,62.9,62.9,0,0,1-20.3,3.4c-7.5,0-13.9-2.5-18.7-7.2s-7.1-11.1-7.1-18.7V128.9Zm38.4-8.9a19.6,19.6,0,0,0-12.6-4.6c-7.9,0-12.5,4.6-12.5,12.5v18.4c0,8,4.6,12.5,12.5,12.5a45.3,45.3,0,0,0,12.6-1.7V120Z" fill="#fff"/><path d="M297.7,143.3c0,5.3.9,8.8,2.6,11.1s5.5,4.4,9.9,4.4a34.6,34.6,0,0,0,13.9-3.4,6.9,6.9,0,0,1,2.7-.6,6.4,6.4,0,0,1,6.3,6.1,6.1,6.1,0,0,1-3.4,5.8,44.9,44.9,0,0,1-19.6,4.4c-7.5,0-13.9-2.5-18.7-7.2s-7.1-11.1-7.1-18.7V128.9c0-7.5,2.5-13.9,7.1-18.6s11.2-7.2,18.7-7.2,14.1,2.5,18.7,7.2,7.2,11.1,7.2,18.6v6.1a8.4,8.4,0,0,1-8.4,8.4H297.7Zm25.2-12.3c0-10.7-4.4-15.7-12.6-15.7s-12.5,4.9-12.5,15.7h25.2Z" fill="#fff"/><path d="M346.6,122.3a18.8,18.8,0,0,1,19.2-19.2,49.3,49.3,0,0,1,9.7,1,6.5,6.5,0,0,1,5.3,6.3,6.1,6.1,0,0,1-6.3,6.2,7.1,7.1,0,0,1-2.2-.3,28,28,0,0,0-6.4-1,6,6,0,0,0-5.9,5.9v43.1a6.6,6.6,0,1,1-13.3,0V122.3Z" fill="#fff"/></svg>